<svg width="43" height="42" viewBox="0 0 43 42" fill="none" xmlns="http://www.w3.org/2000/svg">
<ellipse cx="21.775" cy="20.5437" rx="9.13043" ry="15.0652" fill="white"/>
<path d="M21.7744 0C10.1763 0 0.774414 9.40188 0.774414 21C0.774414 32.5981 10.1763 42 21.7744 42C33.3725 42 42.7744 32.5981 42.7744 21C42.7744 9.40188 33.3725 0 21.7744 0ZM26.7488 14.5119H23.5922C23.2182 14.5119 22.8025 15.0041 22.8025 15.6581V17.9375H26.751L26.1538 21.1881H22.8025V30.9466H19.0772V21.1881H15.6975V17.9375H19.0772V16.0256C19.0772 13.2825 20.9804 11.0534 23.5922 11.0534H26.7488V14.5119Z" fill="#303C4D"/>
</svg>
