<svg width="46" height="46" viewBox="0 0 46 46" fill="none" xmlns="http://www.w3.org/2000/svg">
<circle cx="23" cy="23" r="23" fill="#303C4D"/>
<path d="M23.2958 16.8773C20.073 16.8773 17.472 19.4783 17.472 22.7012C17.472 25.9242 20.073 28.5252 23.2958 28.5252C26.5187 28.5252 29.1197 25.9242 29.1197 22.7012C29.1197 19.4783 26.5187 16.8773 23.2958 16.8773ZM23.2958 26.4864C21.2116 26.4864 19.5108 24.7855 19.5108 22.7012C19.5108 20.617 21.2116 18.9161 23.2958 18.9161C25.3801 18.9161 27.0809 20.617 27.0809 22.7012C27.0809 24.7855 25.3801 26.4864 23.2958 26.4864ZM29.3582 15.2814C28.6058 15.2814 27.9981 15.8891 27.9981 16.6416C27.9981 17.3941 28.6058 18.0017 29.3582 18.0017C30.1107 18.0017 30.7184 17.3969 30.7184 16.6416C30.7186 16.4629 30.6836 16.2859 30.6153 16.1208C30.547 15.9557 30.4468 15.8056 30.3205 15.6793C30.1941 15.5529 30.0441 15.4528 29.879 15.3845C29.7139 15.3162 29.5369 15.2812 29.3582 15.2814ZM34.6483 22.7012C34.6483 21.1338 34.6625 19.5805 34.5744 18.0159C34.4864 16.1986 34.0719 14.5857 32.743 13.2568C31.4112 11.925 29.8012 11.5133 27.9839 11.4253C26.4165 11.3372 24.8633 11.3514 23.2987 11.3514C21.7313 11.3514 20.178 11.3372 18.6135 11.4253C16.7962 11.5133 15.1833 11.9279 13.8544 13.2568C12.5227 14.5886 12.1109 16.1986 12.0229 18.0159C11.9349 19.5834 11.9491 21.1366 11.9491 22.7012C11.9491 24.2658 11.9349 25.8219 12.0229 27.3865C12.1109 29.2039 12.5255 30.8168 13.8544 32.1457C15.1861 33.4774 16.7962 33.8892 18.6135 33.9772C20.1809 34.0652 21.7341 34.051 23.2987 34.051C24.8661 34.051 26.4193 34.0652 27.9839 33.9772C29.8012 33.8892 31.4141 33.4746 32.743 32.1457C34.0747 30.8139 34.4864 29.2039 34.5744 27.3865C34.6653 25.8219 34.6483 24.2687 34.6483 22.7012ZM32.1495 29.397C31.9422 29.9138 31.6923 30.3 31.292 30.6975C30.8916 31.0979 30.5082 31.3478 29.9914 31.555C28.4979 32.1485 24.9513 32.0151 23.2958 32.0151C21.6404 32.0151 18.091 32.1485 16.5974 31.5579C16.0806 31.3506 15.6944 31.1007 15.2969 30.7003C14.8965 30.3 14.6466 29.9166 14.4394 29.3998C13.8487 27.9033 13.9822 24.3567 13.9822 22.7012C13.9822 21.0458 13.8487 17.4963 14.4394 16.0027C14.6466 15.4859 14.8965 15.0997 15.2969 14.7021C15.6973 14.3046 16.0806 14.0519 16.5974 13.8446C18.091 13.254 21.6404 13.3874 23.2958 13.3874C24.9513 13.3874 28.5007 13.254 29.9943 13.8446C30.5111 14.0519 30.8973 14.3018 31.2948 14.7021C31.6952 15.1025 31.945 15.4859 32.1523 16.0027C32.743 17.4963 32.6095 21.0458 32.6095 22.7012C32.6095 24.3567 32.743 27.9033 32.1495 29.397Z" fill="white"/>
</svg>
