<svg width="14" height="14" viewBox="0 0 14 14" fill="none" xmlns="http://www.w3.org/2000/svg">
<path fill-rule="evenodd" clip-rule="evenodd" d="M2.1 1.4H11.9C12.0857 1.4 12.2637 1.47375 12.395 1.60503C12.5263 1.7363 12.6 1.91435 12.6 2.1V11.9C12.6 12.0857 12.5263 12.2637 12.395 12.395C12.2637 12.5263 12.0857 12.6 11.9 12.6H2.1C1.91435 12.6 1.7363 12.5263 1.60503 12.395C1.47375 12.2637 1.4 12.0857 1.4 11.9V2.1C1.4 1.91435 1.47375 1.7363 1.60503 1.60503C1.7363 1.47375 1.91435 1.4 2.1 1.4ZM0 2.1C0 1.54305 0.221249 1.0089 0.615076 0.615076C1.0089 0.221249 1.54305 0 2.1 0H11.9C12.457 0 12.9911 0.221249 13.3849 0.615076C13.7788 1.0089 14 1.54305 14 2.1V11.9C14 12.457 13.7788 12.9911 13.3849 13.3849C12.9911 13.7788 12.457 14 11.9 14H2.1C1.54305 14 1.0089 13.7788 0.615076 13.3849C0.221249 12.9911 0 12.457 0 11.9V2.1ZM7 7C5.0673 7 3.5 5.1198 3.5 2.8H4.9C4.9 4.5962 6.069 5.6 7 5.6C7.931 5.6 9.1 4.5962 9.1 2.8H10.5C10.5 5.1198 8.9327 7 7 7Z" fill="white"/>
</svg>
