<svg width="27" height="27" viewBox="0 0 27 27" fill="none" xmlns="http://www.w3.org/2000/svg">
<path d="M13.4887 2.25C7.281 2.25 2.25 7.28212 2.25 13.4887C2.25 18.2497 5.21213 22.32 9.39375 23.958C9.29475 23.0693 9.207 21.7013 9.432 20.7315C9.63675 19.854 10.7505 15.1447 10.7505 15.1447C10.7505 15.1447 10.4141 14.4709 10.4141 13.4752C10.4141 11.9137 11.3197 10.7471 12.4481 10.7471C13.4077 10.7471 13.8701 11.4671 13.8701 12.33C13.8701 13.2952 13.2559 14.7364 12.9397 16.0729C12.6754 17.1911 13.5011 18.1035 14.6036 18.1035C16.6005 18.1035 18.1372 15.9975 18.1372 12.9566C18.1372 10.2656 16.2034 8.38462 13.4426 8.38462C10.2443 8.38462 8.36662 10.7831 8.36662 13.2615C8.36662 14.2268 8.739 15.2629 9.20362 15.8265C9.24311 15.8689 9.27099 15.9209 9.28459 15.9772C9.29818 16.0336 9.29703 16.0925 9.28125 16.1483C9.19575 16.5026 9.00563 17.2665 8.96962 17.4229C8.92013 17.6288 8.8065 17.6726 8.59275 17.5736C7.18988 16.92 6.31238 14.868 6.31238 13.2188C6.31238 9.67387 8.8875 6.41813 13.7385 6.41813C17.6377 6.41813 20.6674 9.19575 20.6674 12.9094C20.6674 16.7839 18.225 19.899 14.8354 19.899C13.6958 19.899 12.6259 19.3084 12.2591 18.6097L11.5583 21.2805C11.3051 22.257 10.62 23.481 10.1621 24.228C11.24 24.5608 12.3618 24.7295 13.4899 24.7286C19.6965 24.7286 24.7286 19.6965 24.7286 13.4899C24.7286 7.28325 19.6954 2.25 13.4887 2.25Z" fill="white"/>
</svg>
